<svg width="120" height="40" viewBox="0 0 120 40" fill="none" xmlns="http://www.w3.org/2000/svg">
<path d="M7.70551 39.9979C7.39545 39.9979 7.09288 39.9938 6.78525 39.9867C6.14798 39.9782 5.51219 39.9212 4.88311 39.8162C4.29652 39.7124 3.72828 39.5193 3.19712 39.2432C2.67083 38.9695 2.19081 38.6106 1.77545 38.1802C1.35408 37.7549 1.00327 37.2616 0.736925 36.7199C0.467643 36.1746 0.281283 35.5902 0.184338 34.9869C0.0796462 34.3387 0.0230035 33.6833 0.0148985 33.0262C0.00844658 32.8057 0 32.0714 0 32.0714V7.91524C0 7.91524 0.00899612 7.19223 0.0149494 6.97982C0.0227099 6.32383 0.0790232 5.66941 0.183402 5.0222C0.280526 4.41729 0.46703 3.83117 0.736457 3.28415C1.00183 2.7428 1.35069 2.24915 1.76952 1.82232C2.18788 1.39143 2.66944 1.03064 3.19662 0.753121C3.72656 0.477981 4.29373 0.286241 4.87913 0.184325C5.51028 0.0782559 6.14827 0.0209099 6.78775 0.012768L7.70601 0H112.289L113.218 0.0132804C113.852 0.0210177 114.484 0.0778521 115.109 0.1833C115.701 0.286495 116.274 0.479573 116.81 0.756185C117.866 1.31547 118.725 2.20032 119.268 3.2867C119.533 3.82995 119.716 4.41128 119.812 5.01097C119.918 5.66349 119.977 6.32306 119.989 6.98442C119.992 7.28056 119.992 7.59866 119.992 7.91524C120 8.30737 120 8.68061 120 9.05692V30.942C120 31.3219 120 31.6926 119.992 32.0663C119.992 32.4064 119.992 32.7179 119.988 33.0385C119.976 33.688 119.918 34.3358 119.814 34.9767C119.719 35.5843 119.534 36.1733 119.265 36.723C118.996 37.2588 118.648 37.7478 118.231 38.172C117.815 38.6047 117.334 38.9657 116.807 39.2412C116.272 39.5194 115.7 39.7132 115.109 39.8162C114.48 39.9217 113.845 39.9788 113.207 39.9867C112.909 39.9938 112.597 39.9979 112.294 39.9979L111.191 40L7.70551 39.9979Z" fill="#233748"/>
<path d="M24.769 20.3008C24.7797 19.4662 25.0014 18.6478 25.4135 17.9218C25.8255 17.1959 26.4145 16.5859 27.1256 16.1488C26.6738 15.5036 26.0779 14.9727 25.385 14.5981C24.6922 14.2236 23.9216 14.0157 23.1344 13.9911C21.4552 13.8148 19.8272 14.9959 18.9715 14.9959C18.0992 14.9959 16.7817 14.0086 15.363 14.0378C14.4453 14.0674 13.551 14.3343 12.7671 14.8123C11.9832 15.2904 11.3365 15.9633 10.8901 16.7656C8.95607 20.1141 10.3987 25.0351 12.2513 27.7417C13.1782 29.0671 14.2615 30.5475 15.6789 30.495C17.066 30.4375 17.584 29.6105 19.2583 29.6105C20.9171 29.6105 21.4031 30.495 22.8493 30.4616C24.3377 30.4375 25.2754 29.1304 26.1698 27.7925C26.8358 26.8481 27.3483 25.8044 27.6882 24.7C26.8235 24.3343 26.0856 23.7221 25.5665 22.9398C25.0474 22.1575 24.77 21.2397 24.769 20.3008Z" fill="white"/>
<path d="M22.0371 12.2111C22.8486 11.2369 23.2484 9.98469 23.1516 8.72046C21.9118 8.85068 20.7665 9.44324 19.944 10.3801C19.5419 10.8377 19.2339 11.3702 19.0376 11.9469C18.8414 12.5237 18.7607 13.1335 18.8003 13.7415C19.4205 13.7478 20.034 13.6134 20.5946 13.3483C21.1553 13.0833 21.6485 12.6944 22.0371 12.2111Z" fill="white"/>
<path d="M42.3022 27.1397H37.5688L36.4321 30.4961H34.4272L38.9106 18.0781H40.9936L45.477 30.4961H43.438L42.3022 27.1397ZM38.0591 25.5908H41.8111L39.9615 20.1436H39.9097L38.0591 25.5908Z" fill="white"/>
<path d="M55.1597 25.9699C55.1597 28.7834 53.6538 30.591 51.3814 30.591C50.8057 30.6211 50.2332 30.4885 49.7294 30.2084C49.2256 29.9283 48.8109 29.5119 48.5327 29.007H48.4897V33.4914H46.6313V21.4426H48.4302V22.9485H48.4644C48.7553 22.446 49.1771 22.0318 49.6847 21.7499C50.1923 21.4681 50.7669 21.3291 51.3472 21.3479C53.645 21.3479 55.1597 23.1643 55.1597 25.9699ZM53.2495 25.9699C53.2495 24.1369 52.3023 22.9319 50.857 22.9319C49.437 22.9319 48.482 24.1623 48.482 25.9699C48.482 27.7942 49.437 29.0158 50.857 29.0158C52.3023 29.0158 53.2495 27.8196 53.2495 25.9699Z" fill="white"/>
<path d="M65.1245 25.9699C65.1245 28.7834 63.6187 30.591 61.3462 30.591C60.7706 30.6211 60.1981 30.4885 59.6943 30.2084C59.1905 29.9283 58.7758 29.5119 58.4976 29.007H58.4546V33.4914H56.5962V21.4426H58.395V22.9484H58.4292C58.7201 22.446 59.1419 22.0318 59.6495 21.7499C60.1571 21.4681 60.7317 21.3291 61.312 21.3479C63.6099 21.3479 65.1245 23.1643 65.1245 25.9699ZM63.2144 25.9699C63.2144 24.1369 62.2671 22.9318 60.8218 22.9318C59.4019 22.9318 58.4468 24.1623 58.4468 25.9699C58.4468 27.7942 59.4019 29.0158 60.8218 29.0158C62.2671 29.0158 63.2144 27.8195 63.2144 25.9699H63.2144Z" fill="white"/>
<path d="M71.7105 27.0362C71.8482 28.2676 73.0445 29.0762 74.6792 29.0762C76.2456 29.0762 77.3726 28.2676 77.3726 27.1572C77.3726 26.1934 76.6929 25.6162 75.0835 25.2207L73.4742 24.833C71.1939 24.2822 70.1353 23.2158 70.1353 21.4854C70.1353 19.3428 72.0025 17.8711 74.6538 17.8711C77.2778 17.8711 79.0767 19.3428 79.1372 21.4854H77.2612C77.1489 20.2461 76.1245 19.4981 74.6274 19.4981C73.1304 19.4981 72.106 20.2549 72.106 21.3565C72.106 22.2344 72.7603 22.751 74.3608 23.1465L75.729 23.4824C78.2769 24.0849 79.3355 25.1084 79.3355 26.9248C79.3355 29.248 77.4849 30.7031 74.5415 30.7031C71.7876 30.7031 69.9282 29.2822 69.8081 27.0361L71.7105 27.0362Z" fill="white"/>
<path d="M83.3462 19.3V21.4426H85.0679V22.9143H83.3462V27.9055C83.3462 28.6809 83.6909 29.0422 84.4477 29.0422C84.6521 29.0387 84.8562 29.0243 85.0591 28.9992V30.4621C84.7188 30.5257 84.3729 30.5545 84.0268 30.5481C82.1938 30.5481 81.479 29.8596 81.479 28.1037V22.9143H80.1626V21.4426H81.479V19.3H83.3462Z" fill="white"/>
<path d="M86.0649 25.97C86.0649 23.1213 87.7427 21.3313 90.3589 21.3313C92.9839 21.3313 94.6538 23.1213 94.6538 25.97C94.6538 28.8264 92.9927 30.6086 90.3589 30.6086C87.726 30.6086 86.0649 28.8264 86.0649 25.97ZM92.7602 25.97C92.7602 24.0159 91.8647 22.8625 90.3589 22.8625C88.853 22.8625 87.9585 24.0247 87.9585 25.97C87.9585 27.9319 88.853 29.0764 90.3589 29.0764C91.8647 29.0764 92.7602 27.9319 92.7602 25.97H92.7602Z" fill="white"/>
<path d="M96.186 21.4425H97.9585V22.9835H98.0015C98.1214 22.5022 98.4034 22.0769 98.8 21.779C99.1966 21.4811 99.6836 21.3288 100.179 21.3478C100.393 21.347 100.607 21.3703 100.816 21.4171V23.1554C100.546 23.0728 100.264 23.0348 99.981 23.0431C99.711 23.0321 99.4418 23.0797 99.192 23.1826C98.9421 23.2855 98.7175 23.4412 98.5335 23.6391C98.3496 23.837 98.2106 24.0724 98.1262 24.3291C98.0417 24.5857 98.0139 24.8576 98.0444 25.1261V30.4962H96.186L96.186 21.4425Z" fill="white"/>
<path d="M109.384 27.8372C109.134 29.4807 107.534 30.6086 105.486 30.6086C102.852 30.6086 101.217 28.844 101.217 26.0129C101.217 23.1731 102.861 21.3313 105.408 21.3313C107.913 21.3313 109.488 23.052 109.488 25.7971V26.4338H103.093V26.5461C103.064 26.8793 103.105 27.215 103.216 27.5308C103.326 27.8467 103.502 28.1355 103.732 28.378C103.963 28.6206 104.242 28.8113 104.552 28.9376C104.861 29.0639 105.195 29.1229 105.529 29.1106C105.968 29.1517 106.409 29.05 106.785 28.8206C107.162 28.5911 107.455 28.2462 107.62 27.8371L109.384 27.8372ZM103.102 25.135H107.628C107.645 24.8354 107.6 24.5356 107.495 24.2544C107.39 23.9732 107.229 23.7166 107.02 23.5009C106.812 23.2851 106.561 23.1148 106.283 23.0006C106.006 22.8863 105.708 22.8307 105.408 22.8372C105.105 22.8354 104.805 22.8935 104.525 23.0082C104.245 23.123 103.99 23.292 103.776 23.5057C103.562 23.7193 103.392 23.9733 103.276 24.2529C103.16 24.5326 103.101 24.8324 103.102 25.135V25.135Z" fill="white"/>
<path d="M37.8262 8.73114C38.2158 8.70318 38.6067 8.76204 38.9709 8.90347C39.335 9.0449 39.6632 9.26538 39.9317 9.54901C40.2003 9.83263 40.4026 10.1723 40.524 10.5436C40.6454 10.9149 40.6829 11.3085 40.6338 11.696C40.6338 13.6022 39.6035 14.698 37.8262 14.698H35.6709V8.73114H37.8262ZM36.5976 13.8541H37.7226C38.0011 13.8708 38.2797 13.8251 38.5382 13.7205C38.7967 13.6159 39.0287 13.455 39.2172 13.2494C39.4057 13.0438 39.546 12.7988 39.6278 12.5322C39.7097 12.2656 39.7311 11.9841 39.6904 11.7081C39.7281 11.4333 39.7046 11.1535 39.6215 10.8889C39.5383 10.6242 39.3977 10.3812 39.2096 10.1773C39.0216 9.97334 38.7907 9.81353 38.5337 9.70929C38.2766 9.60506 37.9996 9.55897 37.7226 9.57435H36.5976V13.8541Z" fill="white"/>
<path d="M41.6807 12.4445C41.6524 12.1486 41.6862 11.85 41.7801 11.568C41.8739 11.2859 42.0257 11.0266 42.2256 10.8066C42.4256 10.5866 42.6693 10.4108 42.9411 10.2906C43.213 10.1703 43.507 10.1082 43.8042 10.1082C44.1015 10.1082 44.3955 10.1703 44.6673 10.2906C44.9392 10.4108 45.1829 10.5866 45.3828 10.8066C45.5828 11.0266 45.7345 11.2859 45.8284 11.568C45.9222 11.85 45.9561 12.1486 45.9278 12.4445C45.9566 12.7408 45.9232 13.0397 45.8296 13.3223C45.736 13.6048 45.5843 13.8646 45.3843 14.085C45.1843 14.3054 44.9404 14.4816 44.6683 14.6021C44.3962 14.7226 44.1019 14.7849 43.8042 14.7849C43.5066 14.7849 43.2123 14.7226 42.9402 14.6021C42.668 14.4816 42.4241 14.3054 42.2241 14.085C42.0242 13.8646 41.8725 13.6048 41.7789 13.3223C41.6853 13.0397 41.6519 12.7408 41.6807 12.4445ZM45.0137 12.4445C45.0137 11.4685 44.5752 10.8977 43.8057 10.8977C43.0332 10.8977 42.5987 11.4685 42.5987 12.4445C42.5987 13.4284 43.0333 13.9948 43.8057 13.9948C44.5752 13.9948 45.0137 13.4245 45.0137 12.4445H45.0137Z" fill="white"/>
<path d="M51.5732 14.698H50.6514L49.7207 11.3816H49.6504L48.7236 14.698H47.8105L46.5693 10.1951H47.4707L48.2773 13.6311H48.3438L49.2695 10.1951H50.1221L51.0479 13.6311H51.1182L51.9209 10.1951H52.8096L51.5732 14.698Z" fill="white"/>
<path d="M53.8535 10.1949H54.709V10.9102H54.7754C54.888 10.6533 55.0781 10.4379 55.3189 10.2941C55.5598 10.1503 55.8395 10.0852 56.1191 10.1079C56.3382 10.0915 56.5582 10.1245 56.7628 10.2046C56.9674 10.2847 57.1514 10.4098 57.3011 10.5707C57.4508 10.7315 57.5623 10.924 57.6275 11.1338C57.6927 11.3436 57.7099 11.5654 57.6777 11.7827V14.6977H56.7891V12.0059C56.7891 11.2823 56.4746 10.9224 55.8174 10.9224C55.6686 10.9155 55.5201 10.9408 55.3821 10.9966C55.244 11.0525 55.1197 11.1375 55.0175 11.2459C54.9154 11.3543 54.8379 11.4834 54.7904 11.6246C54.7429 11.7657 54.7264 11.9154 54.7422 12.0635V14.6978H53.8535L53.8535 10.1949Z" fill="white"/>
<path d="M59.0938 8.43701H59.9824V14.6978H59.0938V8.43701Z" fill="white"/>
<path d="M61.2178 12.4444C61.1895 12.1484 61.2234 11.8499 61.3172 11.5678C61.4111 11.2857 61.5629 11.0263 61.7628 10.8064C61.9628 10.5864 62.2065 10.4106 62.4784 10.2903C62.7503 10.17 63.0443 10.1079 63.3416 10.1079C63.6389 10.1079 63.9329 10.17 64.2047 10.2903C64.4766 10.4106 64.7203 10.5864 64.9203 10.8064C65.1203 11.0263 65.272 11.2857 65.3659 11.5678C65.4598 11.8499 65.4936 12.1484 65.4653 12.4444C65.4942 12.7406 65.4607 13.0396 65.3671 13.3221C65.2734 13.6046 65.1217 13.8645 64.9217 14.0849C64.7217 14.3053 64.4778 14.4814 64.2057 14.6019C63.9335 14.7225 63.6392 14.7847 63.3416 14.7847C63.0439 14.7847 62.7496 14.7225 62.4775 14.6019C62.2053 14.4814 61.9614 14.3053 61.7614 14.0849C61.5614 13.8645 61.4097 13.6046 61.3161 13.3221C61.2225 13.0396 61.189 12.7406 61.2178 12.4444ZM64.5508 12.4444C64.5508 11.4683 64.1123 10.8975 63.3428 10.8975C62.5703 10.8975 62.1358 11.4683 62.1358 12.4444C62.1358 13.4283 62.5704 13.9947 63.3428 13.9947C64.1123 13.9947 64.5508 13.4244 64.5508 12.4444H64.5508Z" fill="white"/>
<path d="M66.4009 13.4246C66.4009 12.614 67.0044 12.1467 68.0757 12.0803L69.2954 12.01V11.6213C69.2954 11.1457 68.981 10.8772 68.3735 10.8772C67.8774 10.8772 67.5337 11.0593 67.4351 11.3777H66.5747C66.6655 10.6042 67.3931 10.1082 68.4146 10.1082C69.5435 10.1082 70.1802 10.6702 70.1802 11.6213V14.698H69.3247V14.0652H69.2544C69.1117 14.2922 68.9113 14.4772 68.6737 14.6014C68.436 14.7256 68.1697 14.7846 67.9019 14.7722C67.7128 14.7918 67.5218 14.7717 67.341 14.713C67.1602 14.6543 66.9938 14.5584 66.8524 14.4314C66.711 14.3044 66.5977 14.1492 66.52 13.9758C66.4422 13.8024 66.4016 13.6146 66.4009 13.4246ZM69.2954 13.0398V12.6633L68.1958 12.7336C67.5757 12.7751 67.2944 12.9861 67.2944 13.383C67.2944 13.7883 67.646 14.0242 68.1294 14.0242C68.2711 14.0385 68.4142 14.0242 68.5502 13.9821C68.6862 13.94 68.8123 13.871 68.9211 13.7792C69.0299 13.6873 69.1191 13.5745 69.1834 13.4475C69.2477 13.3205 69.2858 13.1818 69.2954 13.0398Z" fill="white"/>
<path d="M71.3481 12.4444C71.3481 11.0215 72.0796 10.1201 73.2173 10.1201C73.4987 10.1072 73.778 10.1746 74.0225 10.3145C74.267 10.4544 74.4667 10.661 74.5981 10.9101H74.6646V8.43701H75.5532V14.6978H74.7017V13.9863H74.6314C74.4897 14.2338 74.2831 14.4378 74.0339 14.5763C73.7846 14.7148 73.5022 14.7825 73.2173 14.772C72.0718 14.772 71.3481 13.8706 71.3481 12.4444ZM72.2661 12.4444C72.2661 13.3994 72.7163 13.9741 73.4693 13.9741C74.2183 13.9741 74.6812 13.3911 74.6812 12.4483C74.6812 11.5098 74.2134 10.9185 73.4693 10.9185C72.7212 10.9185 72.2661 11.4971 72.2661 12.4444H72.2661Z" fill="white"/>
<path d="M79.23 12.4445C79.2017 12.1486 79.2356 11.85 79.3294 11.568C79.4232 11.2859 79.575 11.0266 79.7749 10.8066C79.9749 10.5866 80.2186 10.4108 80.4904 10.2906C80.7623 10.1703 81.0563 10.1082 81.3536 10.1082C81.6508 10.1082 81.9448 10.1703 82.2167 10.2906C82.4885 10.4108 82.7322 10.5866 82.9322 10.8066C83.1321 11.0266 83.2839 11.2859 83.3777 11.568C83.4715 11.85 83.5054 12.1486 83.4771 12.4445C83.5059 12.7408 83.4725 13.0397 83.3789 13.3223C83.2853 13.6048 83.1336 13.8646 82.9336 14.085C82.7336 14.3054 82.4897 14.4816 82.2176 14.6021C81.9455 14.7226 81.6512 14.7849 81.3536 14.7849C81.0559 14.7849 80.7616 14.7226 80.4895 14.6021C80.2173 14.4816 79.9735 14.3054 79.7735 14.085C79.5735 13.8646 79.4218 13.6048 79.3282 13.3223C79.2346 13.0397 79.2012 12.7408 79.23 12.4445ZM82.563 12.4445C82.563 11.4685 82.1245 10.8977 81.355 10.8977C80.5826 10.8977 80.148 11.4685 80.148 12.4445C80.148 13.4284 80.5826 13.9948 81.355 13.9948C82.1245 13.9948 82.563 13.4245 82.563 12.4445Z" fill="white"/>
<path d="M84.6694 10.1949H85.5249V10.9102H85.5913C85.704 10.6533 85.894 10.4379 86.1348 10.2941C86.3757 10.1503 86.6555 10.0852 86.9351 10.1079C87.1542 10.0915 87.3742 10.1245 87.5788 10.2046C87.7834 10.2847 87.9673 10.4098 88.117 10.5707C88.2667 10.7315 88.3783 10.924 88.4435 11.1338C88.5087 11.3436 88.5258 11.5654 88.4937 11.7827V14.6977H87.605V12.0059C87.605 11.2823 87.2905 10.9224 86.6333 10.9224C86.4846 10.9155 86.336 10.9408 86.198 10.9966C86.0599 11.0525 85.9356 11.1375 85.8335 11.2459C85.7313 11.3543 85.6539 11.4834 85.6063 11.6246C85.5588 11.7657 85.5423 11.9154 85.5581 12.0635V14.6978H84.6694V10.1949Z" fill="white"/>
<path d="M93.5151 9.07397V10.2156H94.4907V10.9641H93.5151V13.2795C93.5151 13.7512 93.7095 13.9578 94.1519 13.9578C94.2651 13.9574 94.3783 13.9506 94.4907 13.9373V14.6775C94.3311 14.706 94.1694 14.7212 94.0073 14.7229C93.019 14.7229 92.6255 14.3752 92.6255 13.5071V10.9641H91.9106V10.2155H92.6255V9.07397H93.5151Z" fill="white"/>
<path d="M95.7046 8.43701H96.5854V10.9185H96.6558C96.7739 10.6591 96.9691 10.4425 97.2148 10.2982C97.4605 10.1539 97.7447 10.0888 98.0288 10.1118C98.2467 10.1 98.4646 10.1364 98.6669 10.2184C98.8692 10.3004 99.0508 10.4261 99.199 10.5864C99.3471 10.7468 99.458 10.9378 99.5238 11.146C99.5896 11.3541 99.6086 11.5742 99.5795 11.7905V14.6978H98.69V12.0098C98.69 11.2905 98.355 10.9263 97.7271 10.9263C97.5743 10.9137 97.4207 10.9347 97.2769 10.9878C97.1332 11.0408 97.0027 11.1247 96.8947 11.2334C96.7867 11.3421 96.7038 11.4732 96.6517 11.6173C96.5997 11.7614 96.5797 11.9152 96.5933 12.0679V14.6977H95.7046L95.7046 8.43701Z" fill="white"/>
<path d="M104.761 13.482C104.641 13.8935 104.379 14.2495 104.022 14.4877C103.666 14.7258 103.237 14.831 102.81 14.7847C102.514 14.7926 102.219 14.7357 101.946 14.6182C101.674 14.5007 101.43 14.3253 101.232 14.1041C101.034 13.883 100.887 13.6214 100.8 13.3376C100.713 13.0538 100.69 12.7545 100.73 12.4605C100.691 12.1656 100.715 11.8657 100.801 11.581C100.888 11.2964 101.035 11.0336 101.231 10.8105C101.428 10.5874 101.671 10.4093 101.943 10.2881C102.214 10.1669 102.509 10.1054 102.806 10.108C104.059 10.108 104.815 10.964 104.815 12.378V12.6881H101.635V12.7379C101.621 12.9031 101.642 13.0695 101.696 13.2262C101.751 13.383 101.837 13.5267 101.95 13.6481C102.063 13.7696 102.2 13.8661 102.352 13.9315C102.504 13.9969 102.669 14.0297 102.835 14.0279C103.047 14.0534 103.263 14.0151 103.453 13.9179C103.644 13.8207 103.802 13.669 103.906 13.482L104.761 13.482ZM101.635 12.0308H103.91C103.921 11.8797 103.9 11.7279 103.85 11.5852C103.799 11.4425 103.718 11.312 103.614 11.2021C103.51 11.0923 103.383 11.0055 103.243 10.9473C103.103 10.8891 102.953 10.8609 102.801 10.8643C102.648 10.8624 102.495 10.8913 102.353 10.9492C102.21 11.0072 102.081 11.093 101.972 11.2017C101.864 11.3104 101.778 11.4398 101.72 11.5822C101.662 11.7246 101.633 11.8771 101.635 12.0308H101.635Z" fill="white"/>
</svg>
