<svg width="24" height="24" viewBox="0 0 24 24" fill="none" xmlns="http://www.w3.org/2000/svg">
<mask id="mask0" mask-type="alpha" maskUnits="userSpaceOnUse" x="3" y="1" width="19" height="12">
<path fill-rule="evenodd" clip-rule="evenodd" d="M3.77028 1H21.8981V12.9527H3.77028V1Z" fill="white"/>
</mask>
<g mask="url(#mask0)">
<path fill-rule="evenodd" clip-rule="evenodd" d="M12.4483 1.0018C12.4483 1.0018 18.6247 0.72594 21.8981 6.88528H11.9231C11.9231 6.88528 10.0393 6.8238 8.43339 9.09181C7.9703 10.0418 7.47625 11.0224 8.03208 12.9527C7.22911 11.6046 3.77028 5.62894 3.77028 5.62894C3.77028 5.62894 6.21019 1.24685 12.4483 1.0018Z" fill="#E5322A"/>
</g>
<path fill-rule="evenodd" clip-rule="evenodd" d="M21.5766 16.64C21.5766 16.64 18.7284 22.0849 11.7159 21.8173C12.581 20.3315 16.7046 13.2462 16.7046 13.2462C16.7046 13.2462 17.7001 11.6581 16.5246 9.14417C15.927 8.27097 15.3184 7.35599 13.3556 6.86809C14.9342 6.85259 21.8783 6.86909 21.8783 6.86909C21.8783 6.86909 24.4824 11.1571 21.5766 16.64Z" fill="#FDD900"/>
<mask id="mask1" mask-type="alpha" maskUnits="userSpaceOnUse" x="2" y="5" width="15" height="17">
<path fill-rule="evenodd" clip-rule="evenodd" d="M2 5.61853H16.003V21.8267H2V5.61853Z" fill="white"/>
</mask>
<g mask="url(#mask1)">
<path fill-rule="evenodd" clip-rule="evenodd" d="M3.36397 16.6811C3.36397 16.6811 0.0361891 11.5105 3.77644 5.61853C4.64075 7.10494 8.76213 14.1916 8.76213 14.1916C8.76213 14.1916 9.64999 15.8411 12.4321 16.0881C13.4926 16.0113 14.5957 15.9458 16.003 14.5033C15.2271 15.8673 11.7402 21.8266 11.7402 21.8266C11.7402 21.8266 6.69589 21.9199 3.36397 16.6811Z" fill="#65B44C"/>
</g>
<path fill-rule="evenodd" clip-rule="evenodd" d="M11.7159 21.8679L13.119 16.0581C13.119 16.0581 14.6617 15.9386 15.9545 14.5308C15.152 15.9316 11.7159 21.8679 11.7159 21.8679Z" fill="#60AB48"/>
<path fill-rule="evenodd" clip-rule="evenodd" d="M7.74911 11.4988C7.74911 8.9377 9.84127 6.86145 12.4226 6.86145C15.0036 6.86145 17.096 8.9377 17.096 11.4988C17.096 14.0602 15.0036 16.1364 12.4226 16.1364C9.84127 16.1364 7.74911 14.0602 7.74911 11.4988Z" fill="#FEFEFE"/>
<mask id="mask2" mask-type="alpha" maskUnits="userSpaceOnUse" x="8" y="7" width="9" height="9">
<path fill-rule="evenodd" clip-rule="evenodd" d="M8.53121 11.4988C8.53121 13.6313 10.2733 15.3601 12.4225 15.3601C14.5713 15.3601 16.3136 13.6313 16.3136 11.4988C16.3136 9.36645 14.5713 7.63776 12.4225 7.63776C10.2733 7.63776 8.53121 9.36645 8.53121 11.4988Z" fill="white"/>
</mask>
<g mask="url(#mask2)">
<path fill-rule="evenodd" clip-rule="evenodd" d="M8.53121 11.4988C8.53121 13.6313 10.2733 15.3601 12.4225 15.3601C14.5713 15.3601 16.3136 13.6313 16.3136 11.4988C16.3136 9.36645 14.5713 7.63776 12.4225 7.63776C10.2733 7.63776 8.53121 9.36645 8.53121 11.4988Z" fill="url(#paint0_linear)"/>
</g>
<path fill-rule="evenodd" clip-rule="evenodd" d="M21.8783 6.8699L16.1007 8.5508C16.1007 8.5508 15.2295 7.28215 13.3556 6.8689C14.9792 6.86342 21.8783 6.8699 21.8783 6.8699Z" fill="#F0CE00"/>
<path fill-rule="evenodd" clip-rule="evenodd" d="M7.9196 12.7438C7.10764 11.3485 3.77039 5.62854 3.77039 5.62854L8.05036 9.8297C8.05036 9.8297 7.61049 10.7275 7.7773 12.0097L7.9196 12.7438Z" fill="#D93027"/>
<defs>
<linearGradient id="paint0_linear" x1="8.67515" y1="7.69233" x2="8.67515" y2="15.129" gradientUnits="userSpaceOnUse">
<stop stop-color="#96C1E8"/>
<stop offset="1" stop-color="#146CB4"/>
</linearGradient>
</defs>
</svg>
