<svg width="133" height="40" viewBox="0 0 133 40" fill="none" xmlns="http://www.w3.org/2000/svg">
<path d="M127.711 40H5.48899C2.8001 40 0.600098 37.75 0.600098 35V5C0.600098 2.25 2.8001 0 5.48899 0H127.711C130.4 0 132.6 2.25 132.6 5V35C132.6 37.75 130.4 40 127.711 40Z" fill="#233748"/>
<path d="M47.0799 10.2412C47.0799 11.0812 46.8348 11.7512 46.3447 12.2412C45.7959 12.8312 45.0706 13.1312 44.1884 13.1312C43.3357 13.1312 42.6202 12.8312 42.0223 12.2312C41.4244 11.6312 41.1304 10.8812 41.1304 10.0012C41.1304 9.11122 41.4244 8.37122 42.0223 7.77122C42.6202 7.17122 43.3357 6.87122 44.1884 6.87122C44.6099 6.87122 45.0117 6.95122 45.394 7.12122C45.7763 7.29122 46.0801 7.51122 46.3153 7.79122L45.7959 8.32121C45.4038 7.85121 44.8745 7.61122 44.1884 7.61122C43.5709 7.61122 43.0319 7.83122 42.581 8.28122C42.1301 8.72122 41.9047 9.30122 41.9047 10.0112C41.9047 10.7212 42.1301 11.3012 42.581 11.7412C43.0319 12.1812 43.5709 12.4112 44.1884 12.4112C44.8451 12.4112 45.394 12.1912 45.8351 11.7412C46.1193 11.4512 46.2859 11.0412 46.3251 10.5212H44.1884V9.80121H47.0407C47.0603 9.95121 47.0799 10.1012 47.0799 10.2412Z" fill="white" stroke="white" stroke-width="0.211938" stroke-miterlimit="10"/>
<path d="M51.5982 7.74146H48.9224V9.64146H51.3336V10.3615H48.9224V12.2615H51.5982V13.0015H48.1677V7.00146H51.5982V7.74146Z" fill="white" stroke="white" stroke-width="0.211938" stroke-miterlimit="10"/>
<path d="M54.7839 13.0015H54.0292V7.74146H52.3826V7.00146H56.4208V7.74146H54.7741V13.0015H54.7839Z" fill="white" stroke="white" stroke-width="0.211938" stroke-miterlimit="10"/>
<path d="M59.3518 13.0015V7.00146H60.1065V13.0015H59.3518Z" fill="white" stroke="white" stroke-width="0.211938" stroke-miterlimit="10"/>
<path d="M63.4585 13.0015H62.7038V7.74146H61.0571V7.00146H65.0953V7.74146H63.4487V13.0015H63.4585Z" fill="white" stroke="white" stroke-width="0.211938" stroke-miterlimit="10"/>
<path d="M72.7504 12.2208C72.1721 12.8308 71.4566 13.1308 70.594 13.1308C69.7315 13.1308 69.016 12.8308 68.4377 12.2208C67.8594 11.6108 67.5752 10.8708 67.5752 10.0008C67.5752 9.13079 67.8594 8.38079 68.4377 7.78079C69.016 7.17079 69.7315 6.87079 70.594 6.87079C71.4468 6.87079 72.1623 7.17079 72.7504 7.78079C73.3286 8.39079 73.6227 9.13079 73.6227 10.0008C73.6129 10.8808 73.3286 11.6208 72.7504 12.2208ZM68.9964 11.7208C69.4277 12.1708 69.9668 12.3908 70.594 12.3908C71.2213 12.3908 71.7604 12.1708 72.1917 11.7208C72.6229 11.2708 72.8484 10.7008 72.8484 10.0008C72.8484 9.30079 72.6327 8.73079 72.1917 8.28079C71.7604 7.83079 71.2213 7.61079 70.594 7.61079C69.9668 7.61079 69.4277 7.83079 68.9964 8.28079C68.5651 8.73079 68.3397 9.30079 68.3397 10.0008C68.3397 10.7008 68.5651 11.2708 68.9964 11.7208Z" fill="white" stroke="white" stroke-width="0.211938" stroke-miterlimit="10"/>
<path d="M74.6807 13.0015V7.00146H75.602L78.464 11.6715H78.4934L78.464 10.5115V7.00146H79.2187V13.0015H78.4346L75.4452 8.11147H75.4158L75.4452 9.27147V13.0015H74.6807Z" fill="white" stroke="white" stroke-width="0.211938" stroke-miterlimit="10"/>
<path d="M67.3879 21.7497C65.0845 21.7497 63.2026 23.5397 63.2026 25.9997C63.2026 28.4497 65.0845 30.2497 67.3879 30.2497C69.6912 30.2497 71.5731 28.4497 71.5731 25.9997C71.5731 23.5397 69.6912 21.7497 67.3879 21.7497ZM67.3879 28.5797C66.1235 28.5797 65.0355 27.5197 65.0355 25.9997C65.0355 24.4697 66.1235 23.4197 67.3879 23.4197C68.6523 23.4197 69.7402 24.4697 69.7402 25.9997C69.7402 27.5197 68.6425 28.5797 67.3879 28.5797ZM58.2529 21.7497C55.9496 21.7497 54.0677 23.5397 54.0677 25.9997C54.0677 28.4497 55.9496 30.2497 58.2529 30.2497C60.5563 30.2497 62.4381 28.4497 62.4381 25.9997C62.4381 23.5397 60.5563 21.7497 58.2529 21.7497ZM58.2529 28.5797C56.9885 28.5797 55.9006 27.5197 55.9006 25.9997C55.9006 24.4697 56.9885 23.4197 58.2529 23.4197C59.5173 23.4197 60.6053 24.4697 60.6053 25.9997C60.6053 27.5197 59.5173 28.5797 58.2529 28.5797ZM47.3929 23.0597V24.8597H51.6271C51.4997 25.8697 51.1665 26.6197 50.6666 27.1297C50.0491 27.7597 49.0886 28.4497 47.4027 28.4497C44.7955 28.4497 42.7568 26.3097 42.7568 23.6497C42.7568 20.9897 44.7955 18.8497 47.4027 18.8497C48.8043 18.8497 49.8335 19.4097 50.5882 20.1397L51.833 18.8697C50.7744 17.8397 49.3728 17.0497 47.3929 17.0497C43.8252 17.0497 40.8259 20.0097 40.8259 23.6597C40.8259 27.2997 43.8252 30.2697 47.3929 30.2697C49.3238 30.2697 50.7744 29.6297 51.9114 28.4197C53.0777 27.2297 53.4404 25.5497 53.4404 24.1997C53.4404 23.7797 53.411 23.3897 53.3424 23.0697H47.3929V23.0597ZM91.8033 24.4597C91.4602 23.5097 90.4017 21.7497 88.2356 21.7497C86.089 21.7497 84.3052 23.4697 84.3052 25.9997C84.3052 28.3797 86.0694 30.2497 88.4414 30.2497C90.3527 30.2497 91.4602 29.0597 91.9111 28.3697L90.4899 27.3997C90.0194 28.1097 89.3725 28.5797 88.4414 28.5797C87.5103 28.5797 86.8437 28.1397 86.4223 27.2897L91.9993 24.9397L91.8033 24.4597ZM86.1184 25.8797C86.0694 24.2397 87.3632 23.3997 88.2944 23.3997C89.0197 23.3997 89.6372 23.7697 89.843 24.2997L86.1184 25.8797ZM81.5902 29.9997H83.423V17.4997H81.5902V29.9997ZM78.5909 22.6997H78.5223C78.1107 22.1997 77.3265 21.7497 76.3268 21.7497C74.2391 21.7497 72.3278 23.6197 72.3278 26.0197C72.3278 28.3997 74.2391 30.2597 76.3268 30.2597C77.3167 30.2597 78.1107 29.8097 78.5223 29.2897H78.5811V29.8997C78.5811 31.5297 77.7284 32.3997 76.3562 32.3997C75.2388 32.3997 74.5429 31.5797 74.2587 30.8897L72.661 31.5697C73.1217 32.6997 74.3371 34.0797 76.3562 34.0797C78.5027 34.0797 80.316 32.7897 80.316 29.6497V22.0097H78.5811V22.6997H78.5909ZM76.4836 28.5797C75.2192 28.5797 74.1607 27.4997 74.1607 26.0197C74.1607 24.5197 75.2192 23.4297 76.4836 23.4297C77.7284 23.4297 78.7085 24.5297 78.7085 26.0197C78.7183 27.4997 77.7382 28.5797 76.4836 28.5797ZM100.389 17.4997H96.0081V29.9997H97.841V25.2597H100.399C102.428 25.2597 104.418 23.7597 104.418 21.3797C104.418 18.9997 102.408 17.4997 100.389 17.4997ZM100.429 23.5197H97.8312V19.2297H100.429C101.801 19.2297 102.575 20.3897 102.575 21.3697C102.575 22.3497 101.801 23.5197 100.429 23.5197ZM111.739 21.7297C110.416 21.7297 109.044 22.3297 108.476 23.6397L110.103 24.3297C110.446 23.6397 111.093 23.4097 111.769 23.4097C112.71 23.4097 113.68 23.9897 113.69 25.0197V25.1497C113.357 24.9597 112.651 24.6697 111.779 24.6697C110.024 24.6697 108.25 25.6497 108.25 27.4797C108.25 29.1497 109.681 30.2297 111.289 30.2297C112.514 30.2297 113.2 29.6697 113.621 29.0097H113.68V29.9797H115.444V25.1897C115.454 22.9697 113.827 21.7297 111.739 21.7297ZM111.514 28.5797C110.916 28.5797 110.083 28.2697 110.083 27.5197C110.083 26.5597 111.122 26.1897 112.024 26.1897C112.827 26.1897 113.21 26.3697 113.69 26.6097C113.553 27.7597 112.573 28.5797 111.514 28.5797ZM121.884 21.9997L119.786 27.4197H119.728L117.552 21.9997H115.582L118.845 29.5797L116.983 33.7897H118.895L123.923 21.9997H121.884ZM105.418 29.9997H107.25V17.4997H105.418V29.9997Z" fill="white"/>
<path d="M10.8337 7.53936C10.5494 7.84936 10.3828 8.32936 10.3828 8.93936V31.0594C10.3828 31.6794 10.5494 32.1594 10.8337 32.4594L10.9023 32.5294L23.0463 20.1494V19.9994V19.8494L10.9023 7.46936L10.8337 7.53936Z" fill="url(#paint0_linear)"/>
<path d="M27.0934 24.2794L23.0454 20.1494V19.9994V19.8494L27.0934 15.7194L27.1816 15.7694L31.9745 18.5494C33.3467 19.3394 33.3467 20.6394 31.9745 21.4394L27.1816 24.2194L27.0934 24.2794Z" fill="url(#paint1_linear)"/>
<path d="M27.1823 24.2199L23.0461 19.9999L10.8335 32.4599C11.2844 32.9499 12.0293 33.0099 12.8722 32.5199L27.1823 24.2199Z" fill="url(#paint2_linear)"/>
<path d="M27.1821 15.78L12.8622 7.47999C12.0193 6.98999 11.2744 7.04999 10.8235 7.53999L23.0459 20L27.1821 15.78Z" fill="url(#paint3_linear)"/>
<path opacity="0.2" d="M27.0956 24.1293L12.8639 32.3793C12.0699 32.8393 11.3544 32.8093 10.9036 32.3893L10.835 32.4593L10.9036 32.5293C11.3642 32.9493 12.0699 32.9793 12.8639 32.5193L27.1838 24.2193L27.0956 24.1293Z" fill="black"/>
<path opacity="0.12" d="M10.8342 32.3196C10.5499 32.0096 10.3833 31.5296 10.3833 30.9196V31.0696C10.3833 31.6896 10.5499 32.1696 10.8342 32.4696L10.9028 32.3996L10.8342 32.3196Z" fill="black"/>
<path opacity="0.12" d="M31.9742 21.2999L27.0833 24.1299L27.1715 24.2199L31.9644 21.4399C32.6505 21.0399 32.9935 20.5199 32.9935 19.9999C32.9445 20.4699 32.6015 20.9399 31.9742 21.2999Z" fill="black"/>
<path opacity="0.25" d="M12.8616 7.61969L31.9745 18.6997C32.592 19.0597 32.9448 19.5197 33.0036 19.9997C33.0036 19.4797 32.6606 18.9497 31.9745 18.5597L12.8616 7.47969C11.4894 6.68969 10.3721 7.34969 10.3721 8.94969V9.09969C10.3721 7.48969 11.4992 6.82969 12.8616 7.61969Z" fill="white"/>
<defs>
<linearGradient id="paint0_linear" x1="21.9678" y1="8.70906" x2="5.18881" y2="25.1549" gradientUnits="userSpaceOnUse">
<stop stop-color="#00A0FF"/>
<stop offset="0.00657445" stop-color="#00A1FF"/>
<stop offset="0.2601" stop-color="#00BEFF"/>
<stop offset="0.5122" stop-color="#00D2FF"/>
<stop offset="0.7604" stop-color="#00DFFF"/>
<stop offset="1" stop-color="#00E3FF"/>
</linearGradient>
<linearGradient id="paint1_linear" x1="33.7627" y1="20.0008" x2="10.0462" y2="20.0008" gradientUnits="userSpaceOnUse">
<stop stop-color="#FFE000"/>
<stop offset="0.4087" stop-color="#FFBD00"/>
<stop offset="0.7754" stop-color="#FFA500"/>
<stop offset="1" stop-color="#FF9C00"/>
</linearGradient>
<linearGradient id="paint2_linear" x1="24.9348" y1="22.296" x2="2.18112" y2="44.5979" gradientUnits="userSpaceOnUse">
<stop stop-color="#FF3A44"/>
<stop offset="1" stop-color="#C31162"/>
</linearGradient>
<linearGradient id="paint3_linear" x1="7.75299" y1="0.176187" x2="17.9135" y2="10.1349" gradientUnits="userSpaceOnUse">
<stop stop-color="#32A071"/>
<stop offset="0.0685" stop-color="#2DA771"/>
<stop offset="0.4762" stop-color="#15CF74"/>
<stop offset="0.8009" stop-color="#06E775"/>
<stop offset="1" stop-color="#00F076"/>
</linearGradient>
</defs>
</svg>
